<svg xmlns="http://www.w3.org/2000/svg">
  <symbol id="search" viewBox="0 0 24 24"><circle cx="11" cy="11" r="7"/><path d="m20 20-4-4"/></symbol>
  <symbol id="close" viewBox="0 0 24 24"><path d="m6 6 12 12M18 6 6 18"/></symbol>
  <symbol id="chevron-down" viewBox="0 0 24 24"><path d="m6 9 6 6 6-6"/></symbol>
  <symbol id="chevron-left" viewBox="0 0 24 24"><path d="m15 18-6-6 6-6"/></symbol>
  <symbol id="chevron-right" viewBox="0 0 24 24"><path d="m9 18 6-6-6-6"/></symbol>
  <symbol id="eye" viewBox="0 0 24 24"><path d="M2.5 12s3.5-6 9.5-6 9.5 6 9.5 6-3.5 6-9.5 6-9.5-6-9.5-6Z"/><circle cx="12" cy="12" r="2.5"/></symbol>
  <symbol id="eye-off" viewBox="0 0 24 24"><path d="m3 3 18 18M10.6 6.2A10 10 0 0 1 12 6c6 0 9.5 6 9.5 6a16 16 0 0 1-2.2 2.8M6.5 6.8C4 8.5 2.5 12 2.5 12s3.5 6 9.5 6a9.3 9.3 0 0 0 3-.5M10.3 10.3a2.5 2.5 0 0 0 3.4 3.4"/></symbol>
  <symbol id="plus" viewBox="0 0 24 24"><path d="M12 5v14M5 12h14"/></symbol>
  <symbol id="minus" viewBox="0 0 24 24"><path d="M5 12h14"/></symbol>
  <symbol id="upload" viewBox="0 0 24 24"><path d="M12 16V4m0 0L7 9m5-5 5 5M4 15v4h16v-4"/></symbol>
  <symbol id="more" viewBox="0 0 24 24"><circle cx="5" cy="12" r="1" fill="currentColor" stroke="none"/><circle cx="12" cy="12" r="1" fill="currentColor" stroke="none"/><circle cx="19" cy="12" r="1" fill="currentColor" stroke="none"/></symbol>
  <symbol id="check" viewBox="0 0 24 24"><path d="m5 12 4 4L19 6"/></symbol>
  <symbol id="info" viewBox="0 0 24 24"><circle cx="12" cy="12" r="9"/><path d="M12 11v5M12 8h.01"/></symbol>
  <symbol id="warning" viewBox="0 0 24 24"><path d="M12 3 2.5 20h19L12 3Z"/><path d="M12 9v5M12 17h.01"/></symbol>
  <symbol id="error" viewBox="0 0 24 24"><circle cx="12" cy="12" r="9"/><path d="m9 9 6 6m0-6-6 6"/></symbol>
  <symbol id="bell" viewBox="0 0 24 24"><path d="M18 9a6 6 0 0 0-12 0c0 7-3 7-3 7h18s-3 0-3-7M10 20h4"/></symbol>
  <symbol id="settings" viewBox="0 0 24 24"><circle cx="12" cy="12" r="3"/><path d="M19.4 15a1.7 1.7 0 0 0 .3 1.9l.1.1-2.8 2.8-.1-.1a1.7 1.7 0 0 0-1.9-.3 1.7 1.7 0 0 0-1 1.6v.2h-4V21a1.7 1.7 0 0 0-1-1.6 1.7 1.7 0 0 0-1.9.3l-.1.1L4.2 17l.1-.1a1.7 1.7 0 0 0 .3-1.9A1.7 1.7 0 0 0 3 14H2.8v-4H3a1.7 1.7 0 0 0 1.6-1 1.7 1.7 0 0 0-.3-1.9L4.2 7 7 4.2l.1.1A1.7 1.7 0 0 0 9 4.6 1.7 1.7 0 0 0 10 3v-.2h4V3a1.7 1.7 0 0 0 1 1.6 1.7 1.7 0 0 0 1.9-.3l.1-.1L19.8 7l-.1.1a1.7 1.7 0 0 0-.3 1.9 1.7 1.7 0 0 0 1.6 1h.2v4H21a1.7 1.7 0 0 0-1.6 1Z"/></symbol>
  <symbol id="sort" viewBox="0 0 24 24"><path d="m8 7 4-4 4 4M12 3v18m4-4-4 4-4-4"/></symbol>
  <symbol id="arrow-up" viewBox="0 0 24 24"><path d="m6 15 6-6 6 6"/></symbol>
  <symbol id="arrow-down" viewBox="0 0 24 24"><path d="m6 9 6 6 6-6"/></symbol>
  <symbol id="inbox" viewBox="0 0 24 24"><path d="M4 4h16l2 12v4H2v-4L4 4Z"/><path d="M2 16h6l2 2h4l2-2h6"/></symbol>
  <symbol id="file" viewBox="0 0 24 24"><path d="M6 2h8l4 4v16H6V2Z"/><path d="M14 2v5h5"/></symbol>
  <symbol id="clock" viewBox="0 0 24 24"><circle cx="12" cy="12" r="9"/><path d="M12 7v5l3 2"/></symbol>
  <symbol id="user" viewBox="0 0 24 24"><circle cx="12" cy="8" r="4"/><path d="M4 21a8 8 0 0 1 16 0"/></symbol>
  <symbol id="lock" viewBox="0 0 24 24"><rect x="5" y="10" width="14" height="11" rx="1"/><path d="M8 10V7a4 4 0 0 1 8 0v3"/></symbol>
  <symbol id="trash" viewBox="0 0 24 24"><path d="M4 7h16M9 7V4h6v3m3 0-1 14H7L6 7m4 4v6m4-6v6"/></symbol>
  <symbol id="download" viewBox="0 0 24 24"><path d="M12 3v13m0 0 5-5m-5 5-5-5M4 21h16"/></symbol>
</svg>
